<svg width="680" height="500" viewBox="0 0 680 500" xmlns="http://www.w3.org/2000/svg">
  <title>Pawsible — a small dog awaiting a home</title>

  <defs>
    <pattern id="paper-dots-paw" patternUnits="userSpaceOnUse" width="14" height="14">
      <circle cx="7" cy="7" r="0.6" fill="#B8864B" opacity="0.2"/>
    </pattern>
    <pattern id="shade-dog" patternUnits="userSpaceOnUse" width="5" height="5" patternTransform="rotate(45)">
      <line x1="0" y1="0" x2="0" y2="5" stroke="#7A2E1D" stroke-width="0.4" opacity="0.3"/>
    </pattern>
  </defs>

  <rect x="0" y="0" width="680" height="500" fill="#F0E3C4"/>
  <rect x="0" y="0" width="680" height="500" fill="url(#paper-dots-paw)"/>

  <rect x="40" y="40" width="600" height="420" fill="#F5E9CC" stroke="#8B4B2F" stroke-width="2"/>
  <rect x="46" y="46" width="588" height="408" fill="none" stroke="#8B4B2F" stroke-width="0.8"/>

  <path d="M 46 46 Q 130 58, 200 74 Q 150 110, 90 130 Q 46 138, 46 108 Z" fill="#E8A8B0" opacity="0.55"/>
  <path d="M 634 46 Q 550 58, 480 74 Q 530 110, 590 130 Q 634 138, 634 108 Z" fill="#E8A8B0" opacity="0.55"/>
  <path d="M 100 85 Q 108 80, 116 85 Q 124 80, 132 85 Q 140 80, 148 85 Q 156 80, 164 85" stroke="#B56776" stroke-width="1" fill="none" opacity="0.65"/>
  <path d="M 516 85 Q 524 80, 532 85 Q 540 80, 548 85 Q 556 80, 564 85 Q 572 80, 580 85" stroke="#B56776" stroke-width="1" fill="none" opacity="0.65"/>

  <path d="M 46 56 L 58 46" stroke="#8B4B2F" stroke-width="0.8"/>
  <path d="M 634 56 L 622 46" stroke="#8B4B2F" stroke-width="0.8"/>
  <path d="M 46 444 L 58 454" stroke="#8B4B2F" stroke-width="0.8"/>
  <path d="M 634 444 L 622 454" stroke="#8B4B2F" stroke-width="0.8"/>

  <ellipse cx="340" cy="260" rx="170" ry="170" fill="#FAEAC5" opacity="0.55"/>
  <ellipse cx="340" cy="260" rx="110" ry="110" fill="#FAEAC5" opacity="0.5"/>
  <path d="M 340 80 L 250 454 L 430 454 Z" fill="#FAEAC5" opacity="0.28"/>

  <circle cx="215" cy="200" r="2" fill="#B8864B" opacity="0.7"/>
  <circle cx="248" cy="255" r="1.5" fill="#B8864B" opacity="0.7"/>
  <circle cx="205" cy="315" r="2" fill="#B8864B" opacity="0.7"/>
  <circle cx="240" cy="375" r="1.5" fill="#B8864B" opacity="0.6"/>
  <circle cx="455" cy="200" r="2" fill="#B8864B" opacity="0.7"/>
  <circle cx="432" cy="255" r="1.5" fill="#B8864B" opacity="0.7"/>
  <circle cx="465" cy="325" r="2" fill="#B8864B" opacity="0.7"/>
  <circle cx="440" cy="380" r="1.5" fill="#B8864B" opacity="0.6"/>

  <path d="M 70 420 Q 82 412, 92 420 Q 88 428, 80 430 Q 72 428, 70 420 Z" fill="#8FA872" opacity="0.7"/>
  <line x1="72" y1="422" x2="88" y2="425" stroke="#6A8056" stroke-width="0.5"/>
  <path d="M 610 420 Q 598 412, 588 420 Q 592 428, 600 430 Q 608 428, 610 420 Z" fill="#8FA872" opacity="0.7"/>
  <line x1="608" y1="422" x2="592" y2="425" stroke="#6A8056" stroke-width="0.5"/>

  <path d="M 408 318 Q 445 312, 460 288 Q 466 268, 455 262 Q 448 262, 450 274"
    stroke="#5D3A1E" stroke-width="3" fill="#E8B87A" stroke-linejoin="round" stroke-linecap="round"/>

  <path d="M 265 305 Q 253 370, 290 405 Q 340 420, 390 408 Q 422 395, 427 355 Q 432 300, 405 285 Q 370 275, 340 278 Q 290 280, 265 305 Z"
    fill="#E8B87A" stroke="#5D3A1E" stroke-width="2.8"/>

  <path d="M 295 365 Q 340 388, 395 375 Q 395 400, 375 410 Q 320 415, 295 395 Z" fill="#F5D2A0"/>

  <path d="M 280 215 Q 262 250, 272 285 Q 285 310, 320 315 Q 365 318, 400 305 Q 420 290, 422 255 Q 420 215, 395 200 Q 365 188, 330 190 Q 295 195, 280 215 Z"
    fill="#E8B87A" stroke="#5D3A1E" stroke-width="2.8"/>

  <path d="M 282 208 Q 252 205, 245 240 Q 248 275, 275 278 Q 290 273, 292 245 Q 292 222, 282 208 Z"
    fill="#D9A06A" stroke="#5D3A1E" stroke-width="2.2"/>
  <path d="M 400 208 Q 430 205, 437 240 Q 434 275, 407 278 Q 392 273, 390 245 Q 390 222, 400 208 Z"
    fill="#D9A06A" stroke="#5D3A1E" stroke-width="2.2"/>

  <path d="M 265 230 Q 268 250, 275 258" stroke="#A67848" stroke-width="1" fill="none"/>
  <path d="M 415 230 Q 412 250, 405 258" stroke="#A67848" stroke-width="1" fill="none"/>

  <ellipse cx="342" cy="262" rx="34" ry="23" fill="#F5D2A0"/>

  <path d="M 306 235 Q 314 228, 323 234" stroke="#3D2512" stroke-width="2.5" fill="none" stroke-linecap="round"/>
  <path d="M 360 234 Q 368 228, 377 233" stroke="#3D2512" stroke-width="2.5" fill="none" stroke-linecap="round"/>
  <line x1="321" y1="230" x2="324" y2="226" stroke="#3D2512" stroke-width="1" stroke-linecap="round"/>
  <line x1="375" y1="229" x2="378" y2="225" stroke="#3D2512" stroke-width="1" stroke-linecap="round"/>

  <ellipse cx="298" cy="258" rx="7" ry="4" fill="#E89890" opacity="0.6"/>
  <ellipse cx="388" cy="258" rx="7" ry="4" fill="#E89890" opacity="0.6"/>

  <path d="M 337 265 Q 332 277, 342 283 Q 352 277, 347 265 Q 342 260, 337 265 Z" fill="#3D2512"/>
  <ellipse cx="339" cy="268" rx="1.3" ry="0.9" fill="#F5D2A0" opacity="0.7"/>

  <line x1="342" y1="283" x2="342" y2="291" stroke="#3D2512" stroke-width="1.5"/>
  <path d="M 342 291 Q 335 297, 328 292" stroke="#3D2512" stroke-width="1.8" fill="none" stroke-linecap="round"/>
  <path d="M 342 291 Q 349 297, 356 292" stroke="#3D2512" stroke-width="1.8" fill="none" stroke-linecap="round"/>

  <path d="M 288 305 Q 340 335, 398 302 L 402 322 Q 342 352, 285 325 Z"
    fill="#A84A3A" stroke="#5D3A1E" stroke-width="2.5"/>
  <path d="M 293 311 Q 340 338, 395 308" stroke="#F5D2A0" stroke-width="0.6" fill="none" stroke-dasharray="3 2"/>

  <circle cx="342" cy="342" r="3.8" fill="#F5D2A0" stroke="#5D3A1E" stroke-width="1.5"/>

  <path d="M 342 352 Q 324 352, 324 368 Q 324 384, 342 400 Q 360 384, 360 368 Q 360 352, 342 352 Z"
    fill="#E8B540" stroke="#5D3A1E" stroke-width="2.2"/>

  <circle cx="342" cy="378" r="3.8" fill="#5D3A1E"/>
  <circle cx="335" cy="370" r="2" fill="#5D3A1E"/>
  <circle cx="349" cy="370" r="2" fill="#5D3A1E"/>
  <circle cx="337" cy="374" r="1.7" fill="#5D3A1E"/>
  <circle cx="347" cy="374" r="1.7" fill="#5D3A1E"/>

  <ellipse cx="307" cy="418" rx="19" ry="9" fill="#D9A06A" stroke="#5D3A1E" stroke-width="2.2"/>
  <ellipse cx="378" cy="418" rx="19" ry="9" fill="#D9A06A" stroke="#5D3A1E" stroke-width="2.2"/>
  <line x1="299" y1="414" x2="299" y2="424" stroke="#5D3A1E" stroke-width="1"/>
  <line x1="307" y1="413" x2="307" y2="425" stroke="#5D3A1E" stroke-width="1"/>
  <line x1="315" y1="414" x2="315" y2="424" stroke="#5D3A1E" stroke-width="1"/>
  <line x1="370" y1="414" x2="370" y2="424" stroke="#5D3A1E" stroke-width="1"/>
  <line x1="378" y1="413" x2="378" y2="425" stroke="#5D3A1E" stroke-width="1"/>
  <line x1="386" y1="414" x2="386" y2="424" stroke="#5D3A1E" stroke-width="1"/>
</svg>
